<?xml version="1.0" encoding="UTF-8" standalone="no"?>
<!-- Created with Inkscape (http://www.inkscape.org/) -->

<svg
   width="50"
   height="45.051983"
   viewBox="0 0 50 45.051983"
   version="1.1"
   id="svg5"
   xml:space="preserve"
   sodipodi:docname="jay-blue.svg"
   inkscape:version="1.2.2 (732a01da63, 2022-12-09)"
   xmlns:inkscape="http://www.inkscape.org/namespaces/inkscape"
   xmlns:sodipodi="http://sodipodi.sourceforge.net/DTD/sodipodi-0.dtd"
   xmlns="http://www.w3.org/2000/svg"
   xmlns:svg="http://www.w3.org/2000/svg"><sodipodi:namedview
     id="namedview611"
     pagecolor="#505050"
     bordercolor="#eeeeee"
     borderopacity="1"
     inkscape:showpageshadow="0"
     inkscape:pageopacity="0"
     inkscape:pagecheckerboard="0"
     inkscape:deskcolor="#505050"
     showgrid="false"
     inkscape:zoom="18.04"
     inkscape:cx="24.944568"
     inkscape:cy="21.175166"
     inkscape:window-width="1854"
     inkscape:window-height="1057"
     inkscape:window-x="1108"
     inkscape:window-y="345"
     inkscape:window-maximized="1"
     inkscape:current-layer="svg5" /><defs
     id="defs2"><clipPath
       clipPathUnits="userSpaceOnUse"
       id="clipPath738"><g
         inkscape:label="Clip"
         id="use740"
         style="display:inline"><rect
           style="opacity:0;fill:#000000"
           id="rect1491"
           width="50"
           height="24.740875"
           x="0"
           y="25.259125" /></g></clipPath></defs><g
     id="g634"
     transform="matrix(-0.56889552,0,0,0.56889552,37.07517,8.5627292)"
     style="fill:#ffffff;fill-opacity:1"><path
       style="opacity:1;fill:#ffffff;fill-opacity:1"
       d="m 41.421355,-9.3760326e-7 c 0,-5.01716536239674 0,-10.03433106239674 0,-15.05149606239674 0,0 2.919464,6.0362775 8.578645,7.9177146 C 55.659181,-5.2523453 55.580788,0 55.580788,0 l 9.58965,2.5695389 c 0,0 -7.150766,0.3279502 -9.584022,2.5680307 C 51.529044,8.8728275 50,20.710678 50,20.710678 Z"
       id="path647"
       sodipodi:nodetypes="ccsccscc" /><path
       id="path650"
       style="opacity:1;fill:#ffffff;fill-opacity:1;stroke-width:1.17157"
       d="M 41.421355,-9.3760315e-7 A 29.289322,29.289322 0 0 1 49.001991,28.291312 29.289322,29.289322 0 0 1 28.291313,49.00199 29.289322,29.289322 0 0 1 -2.339686e-7,41.421356" /><path
       style="display:inline;opacity:1;fill:#ffffff;fill-opacity:1"
       d="M -3.0845396e-8,41.421356 -22.719162,64.140518 c 3.33982,0 6.679641,0 10.019461,0 L 5.6247678,45.81605 Z"
       id="path1488"
       sodipodi:nodetypes="ccccc" /></g></svg>
